<svg width="174" height="273" fill="none" xmlns="http://www.w3.org/2000/svg"><path fill-rule="evenodd" clip-rule="evenodd" d="M-54.566 257.431c-35.47-37.59-33.75-93.411-22.107-141.499 1.944-8.029 2.816-16.731 8.12-23.034 5.304-6.296 15.26-9.295 21.78-4.395 5.408 4.064 6.577 11.586 8.738 18.053 2.87 8.605 8.202 16.337 15.182 22.017 4.585 3.733 10.604 6.681 16.256 4.926 7.751-2.408 10.56-11.87 12.173-19.925 3.003-15.005 6.005-30.008 9.004-45.012 1.612-8.047 3.282-16.262 7.356-23.377 4.07-7.116 11.05-13.063 19.127-13.63 8.077-.564 16.603 5.796 16.59 13.999-.004 3.413-1.374 6.675-1.839 10.058-.467 3.385.323 7.396 3.295 8.979 3.01 1.606 6.69-.009 9.577-1.87 9.956-6.404 17.737-15.7 25.137-25.016 7.402-9.315 14.7-18.907 24.045-26.21 9.341-7.3 21.186-12.168 32.814-10.446 11.627 1.723 22.405 11.359 22.971 23.262.574 11.939-8.401 22.074-17.48 29.765a182.903 182.903 0 0 1-44.649 27.91c-2.902 1.277-6.046 2.654-7.631 5.43-2.848 5.003 1.122 11.373 6.04 14.225 5.572 3.234 12.188 3.95 18.293 5.984 6.105 2.03 12.312 6.197 13.455 12.61 1.589 8.896-7.049 16.093-14.963 20.34-15.85 8.506-33.125 14.24-50.84 16.88-6.349.946-12.955 1.561-18.573 4.734-5.62 3.172-9.983 9.804-8.276 16.06 1.706 6.265 8.714 9.602 15.134 9.726 6.417.13 12.651-2.088 19.002-3.097 11.888-1.895 25.974 1.812 31.063 12.821 3.347 7.233 1.952 16.061-1.943 23.055-3.891 6.999-9.983 12.458-16.27 17.36-21.968 17.123-48.049 29.173-75.466 32.773-27.414 3.601-51.616 1.112-75.115-13.456" fill="#0CC"/></svg>