<svg width="29" height="47" fill="none" xmlns="http://www.w3.org/2000/svg"><path d="M26.509 18.334a12.17 12.17 0 0 0-9.054-10.877l.276-2.553 2.196-1.117.087-.044 1.559-.783a1.362 1.362 0 0 0 .607-1.831L21.988.75a1.366 1.366 0 0 0-1.836-.605l-.47.238-.035.016-4.446 2.202a.805.805 0 0 0-.466.645l-.412 3.801C7.9 7.068 2.67 12.042 2.213 18.333A2.725 2.725 0 0 0 0 21.007v1.28a2.723 2.723 0 0 0 2.609 2.715l1.8 13.904c.362 4.352 3.805 7.636 8.006 7.636h4.126c4.201 0 7.643-3.282 8.001-7.587L26.35 24.98a2.72 2.72 0 0 0 2.37-2.689v-1.28a2.725 2.725 0 0 0-2.21-2.677ZM14.36 9.09c5.277 0 9.61 4.047 10.09 9.191h-2.001c-.47-4.049-3.904-7.197-8.086-7.197a8.145 8.145 0 0 0-8.092 7.198h-2c.478-5.144 4.81-9.192 10.09-9.192Zm6.137 9.191h-2.215a4.025 4.025 0 0 0-3.922-3.103 4.025 4.025 0 0 0-3.922 3.103H8.224a6.2 6.2 0 0 1 6.136-5.262 6.203 6.203 0 0 1 6.137 5.262ZM5.687 32.436l-.963-7.422h7.615l-.492 4.674c-2.894-.095-4.947 1.44-6.16 2.748Zm16.767 6.295c-.27 3.257-2.814 5.712-5.913 5.712h-4.126c-3.1 0-5.643-2.455-5.918-5.762l-.502-3.88c.459-.758 2.32-3.433 5.672-3.4l-.62 5.879c-.08.768.461 1.462 1.212 1.545l.422.047a1.383 1.383 0 0 0 1.506-1.245l.577-5.49c.11.05.216.094.327.149 3.863 1.886 6.546 1.318 8.134.491l-.77 5.954Zm1.068-8.252c-.52.54-2.928 2.596-7.68.276a12.8 12.8 0 0 0-.89-.389l.563-5.354h8.714l-.707 5.468Zm3.123-8.194a.654.654 0 0 1-.655.658H2.733a.657.657 0 0 1-.657-.655v-1.28c0-.361.295-.654.657-.654H25.99c.363 0 .656.293.657.654l-.002 1.277Z" fill="#122F53"/></svg>